<svg width="165" height="55" viewBox="0 0 165 55" fill="none" xmlns="http://www.w3.org/2000/svg">
<path d="M56.0777 47.6966C49.6194 47.6811 44.3949 45.7519 40.4041 41.909C36.4133 38.0245 34.4253 33.0197 34.44 26.8947C34.4546 20.7697 36.404 15.8369 40.2879 12.0962C44.1719 8.35545 49.4055 6.49298 55.9888 6.50873C65.6138 6.53177 73.3732 11.342 79.2669 20.9395C83.2392 15.1157 87.1032 10.9791 90.8591 8.52971C94.6151 6.03869 99.0556 4.79932 104.181 4.81159C111.264 4.82854 117.071 6.88412 121.603 10.9783C126.094 15.0307 128.331 20.4528 128.314 27.2444C128.298 33.9944 126.16 39.4476 121.9 43.6041C117.599 47.7188 111.885 49.7677 104.76 49.7506C99.3022 49.7375 94.5757 48.5804 90.5812 46.2792C86.5452 43.9362 82.825 40.1564 79.4209 34.9399C72.8588 43.4659 65.0777 47.7181 56.0777 47.6966ZM56.0908 16.134C51.9241 16.124 48.6301 17.0953 46.2088 19.0479C43.7876 20.9587 42.5727 23.6642 42.5644 27.1642C42.5561 30.6225 43.7788 33.3129 46.2325 35.2355C48.6446 37.1579 51.9548 38.1242 56.1631 38.1342C60.3298 38.1442 63.79 37.3608 66.5438 35.7841C69.256 34.1656 72.0545 31.3181 74.9393 27.2417C72.4486 23.3607 69.7261 20.5417 66.772 18.7846C63.7762 17.0274 60.2158 16.1439 56.0908 16.134ZM83.5617 28.3248C86.3431 32.6231 89.3358 35.672 92.5398 37.4713C95.7022 39.2706 99.6792 40.1759 104.471 40.1874C109.263 40.1989 113.078 39.0413 115.917 36.7148C118.756 34.3466 120.18 31.2041 120.189 27.2875C120.199 23.3292 118.727 20.2006 115.774 17.9019C112.821 15.6031 108.845 14.4478 103.845 14.4358C96.9284 14.4193 90.7316 18.2586 85.2549 25.9538L83.5617 28.3248Z" fill="#00FF9F"/>
<path d="M87.8656 28.4568L79.8366 39.4568M78.7661 16.4568L70.7371 27.4568" stroke="#171719" stroke-width="6"/>
</svg>
